PathFileType	4	(X/Y/Z)	Kaydara	
DataRate	CameraRate	NumFrames	NumMarkers	Units	OrigDataRate	OrigDataStartFrame	OrigNumFrames	
60.00	60.00	4	74	mm	60.00	527	200	
Frame#	Time	Z_lasi			Z_rasi			Z_rpsi			Z_lpsi			Z_fneck			Z_bneck			Z_fhead			Z_rhead			Z_lhead			Z_rshld			Z_relbtop			Z_relbext			Z_relblow			Z_rwrext			Z_rwrtop			Z_rwrlow			Z_lshld			Z_lelbext			Z_lelblow			Z_lelbtop			Z_lwrext			Z_lwrtop			Z_lwrlow			Z_rtopleg			Z_ltopleg			Z_rkneefr			Z_rkneebk			Z_rkneeis			Z_lkneefr			Z_lknssbk			Z_lkneeis			Z_rankfr			Z_rankis			Z_rankbk			Z_lankfr			Z_lankbk			Z_lankis			A_lasi			A_rasi			A_rpsi			A_lpsi			A_fneck			A_bneck			A_fhead			A_rhead			A_lhead			A_rshld			A_relbtop			A_relbext			A_relblow			A_rwrext			A_rwrtop			A_rwrlow			A_lshld			A_lelbext			A_lelblow			A_lelbtop			A_lwrext			A_lwrtop			A_lwrlow			A_rtopleg			A_ltopleg			A_rkneefr			A_rkneebk			A_rkneeis			A_lkneefr			A_lknssbk			A_lkneeis			A_rankfr			A_rankis			A_rankbk			A_lankfr			A_lankbk			A_lankis			
		X1	Y1	Z1	X2	Y2	Z2	X3	Y3	Z3	X4	Y4	Z4	X5	Y5	Z5	X6	Y6	Z6	X7	Y7	Z7	X8	Y8	Z8	X9	Y9	Z9	X10	Y10	Z10	X11	Y11	Z11	X12	Y12	Z12	X13	Y13	Z13	X14	Y14	Z14	X15	Y15	Z15	X16	Y16	Z16	X17	Y17	Z17	X18	Y18	Z18	X19	Y19	Z19	X20	Y20	Z20	X21	Y21	Z21	X22	Y22	Z22	X23	Y23	Z23	X24	Y24	Z24	X25	Y25	Z25	X26	Y26	Z26	X27	Y27	Z27	X28	Y28	Z28	X29	Y29	Z29	X30	Y30	Z30	X31	Y31	Z31	X32	Y32	Z32	X33	Y33	Z33	X34	Y34	Z34	X35	Y35	Z35	X36	Y36	Z36	X37	Y37	Z37	X38	Y38	Z38	X39	Y39	Z39	X40	Y40	Z40	X41	Y41	Z41	X42	Y42	Z42	X43	Y43	Z43	X44	Y44	Z44	X45	Y45	Z45	X46	Y46	Z46	X47	Y47	Z47	X48	Y48	Z48	X49	Y49	Z49	X50	Y50	Z50	X51	Y51	Z51	X52	Y52	Z52	X53	Y53	Z53	X54	Y54	Z54	X55	Y55	Z55	X56	Y56	Z56	X57	Y57	Z57	X58	Y58	Z58	X59	Y59	Z59	X60	Y60	Z60	X61	Y61	Z61	X62	Y62	Z62	X63	Y63	Z63	X64	Y64	Z64	X65	Y65	Z65	X66	Y66	Z66	X67	Y67	Z67	X68	Y68	Z68	X69	Y69	Z69	X70	Y70	Z70	X71	Y71	Z71	X72	Y72	Z72	X73	Y73	Z73	X74	Y74	Z74	

26	8.767	-267.69567	1086.57188	671.79108	-305.95774	1097.34474	468.44460	-135.16017	1117.06558	393.91899	-80.29377	1102.21535	634.02191	-266.76701	1448.65326	554.82861	-159.09523	1528.45383	565.32875	-348.48160	1649.45251	488.33725	-182.01429	1630.03998	473.05458	-231.07166	1646.39694	612.22198	-233.64950	1504.17328	376.00029	-156.82699	1193.94714	268.81094	-147.70493	1172.96631	325.35027	-232.16614	1202.33620	286.33884	-254.79738	964.12964	239.31675	-295.70124	984.24263	235.71682	-304.81350	985.10986	277.01885	-194.02943	1505.69626	732.00790	-118.35703	1196.70227	751.15578	-184.28089	1211.91650	808.77716	-115.79118	1216.75354	819.45091	-243.51122	956.79855	803.14331	-224.07310	946.66290	845.20294	-180.13023	944.64050	828.64975	-188.55928	927.41241	345.39330	-184.96166	895.10803	709.44565	-256.84933	421.97617	395.23567	-186.02051	452.59411	347.39273	-195.61440	432.89021	471.03584	-221.83931	447.50214	669.67522	-115.81318	474.70142	657.61345	-210.31246	444.06853	577.20428	-206.86794	180.64602	374.28135	-184.09887	176.78078	436.72863	-130.47216	175.41288	367.79095	-154.53176	164.67115	668.39211	-96.90540	167.24087	612.73792	-174.74215	173.71946	598.04649	-975.50064	1034.71535	462.86934	-964.34586	1040.78270	623.44990	-1122.70752	1041.41479	643.61336	-1099.43100	1045.17845	461.23924	-1029.34280	1386.35544	560.94292	-1163.57712	1409.27887	550.56580	-993.03749	1605.12604	573.50231	-1135.18112	1549.29962	653.51181	-1131.79337	1554.06403	489.58229	-1065.52017	1389.88541	735.21385	-1075.64369	1093.27942	774.05945	-1138.30521	1091.13976	756.35437	-1076.90895	1083.09860	716.59187	-1055.82870	846.97044	793.51273	-1013.88382	858.21716	779.80042	-1027.01828	859.13948	741.21445	-1035.77255	1386.28510	388.21751	-1093.28140	1073.53683	363.73085	-1023.34816	1078.40820	382.17316	-1052.24930	1077.74292	335.85842	-1005.10735	851.44730	377.21977	-1010.79117	851.92123	335.26501	-966.56540	861.87973	342.38014	-1067.51488	876.55304	723.76595	-1035.06485	889.41612	385.17456	-1027.49428	451.94157	633.22308	-1133.44177	486.40614	680.76645	-1116.79245	485.53215	562.11296	-1017.56752	464.76860	504.17274	-1099.47609	479.46884	407.27386	-1123.59497	480.23685	531.15124	-1097.64206	165.93031	658.60146	-1132.76405	162.62104	593.83049	-1178.68286	154.08483	664.33510	-1067.94556	166.45473	456.04744	-1128.51563	167.18893	419.77215	-1128.04710	173.68755	509.03381 
27	8.783	-267.49260	1086.31737	671.74042	-305.61928	1097.26982	468.42739	-134.82442	1116.97952	394.04442	-80.28451	1102.13600	633.98632	-267.34564	1448.80539	554.81956	-159.59227	1528.27682	565.37064	-349.85405	1648.18176	487.51377	-182.93678	1632.22046	473.44341	-233.13902	1647.90909	612.22675	-232.00762	1502.36801	375.30472	-155.74424	1193.41537	265.75272	-146.55304	1171.91628	322.24129	-231.05045	1201.95465	283.86065	-257.73500	964.80621	236.12844	-298.89778	985.72327	234.05550	-305.30830	985.16434	276.30402	-192.53508	1503.71460	732.00569	-115.64060	1196.17828	756.05202	-183.52270	1211.45950	811.04691	-115.46833	1216.79253	824.32877	-243.89275	957.11426	802.36359	-226.91969	946.82762	845.43259	-182.16562	944.70055	831.45950	-187.78580	927.59964	345.22289	-183.87205	895.23468	709.24706	-256.02816	422.18742	395.18013	-185.07841	452.67319	347.22950	-193.95449	432.77111	470.41336	-221.09159	447.65202	669.64203	-114.89052	474.71485	657.31438	-209.51937	444.16454	577.06982	-206.61831	180.76017	374.18221	-183.93179	176.89579	436.63937	-130.15532	175.36432	367.73228	-154.18283	164.77316	668.43681	-96.64629	167.13642	612.64629	-174.49022	173.76575	598.09227	-975.49683	1034.63470	462.78912	-964.26460	1040.72731	623.38757	-1122.61307	1041.38893	643.62350	-1099.37531	1045.18219	461.20274	-1029.42703	1386.29700	560.78491	-1163.66859	1409.37347	550.45357	-992.71187	1604.91837	573.54389	-1134.96422	1549.22974	653.50807	-1131.61522	1554.22836	489.62181	-1065.50087	1389.67499	735.15350	-1075.77660	1093.05199	773.88237	-1138.30200	1090.93765	755.93971	-1076.80199	1082.81929	716.21925	-1056.08330	846.67931	793.09387	-1014.06609	857.88712	779.49745	-1027.18803	857.82921	740.41359	-1036.08147	1385.92300	387.94140	-1093.86887	1073.17116	363.98888	-1023.82988	1078.09540	382.16709	-1052.83012	1077.39464	335.95486	-1005.87212	851.15387	377.19990	-1011.47804	851.56059	335.49191	-967.15530	861.53793	342.39624	-1067.44156	876.49651	723.69507	-1035.16449	889.42665	385.12566	-1027.53906	451.92291	633.15975	-1133.47900	486.38927	680.74898	-1116.85616	485.50694	562.10430	-1017.62978	464.74953	504.09695	-1099.59129	479.47781	407.21672	-1123.64372	480.21484	531.11725	-1097.74460	165.88476	658.59634	-1132.78839	162.63311	593.78254	-1178.68256	154.08478	664.33495	-1067.98233	166.44562	456.06560	-1128.55995	167.14964	419.76978	-1128.06961	173.69049	509.00631 
28	8.800	-267.59571	1085.43816	671.64597	-305.73240	1096.58333	468.38264	-134.61943	1116.64955	394.14959	-80.61965	1101.72081	633.93761	-268.01779	1448.70972	554.53201	-160.08932	1527.49222	565.16659	-351.13598	1647.30896	486.69289	-183.82753	1634.67941	473.92536	-235.39898	1649.24576	612.44038	-229.64279	1498.32123	373.15239	-154.48186	1190.03029	262.41091	-145.45962	1168.18169	318.67691	-229.88234	1199.18121	280.58275	-261.83767	963.25668	232.79331	-302.57240	984.84131	233.07735	-307.69283	983.91617	275.26918	-189.43541	1499.20441	733.18069	-112.53118	1192.80647	761.60973	-182.00094	1208.54782	814.39400	-114.22587	1213.82042	829.61983	-245.02077	955.44899	801.60980	-230.77244	944.87869	845.65208	-185.41376	942.40936	834.59473	-186.82444	927.71523	345.12661	-182.89063	895.17670	709.16840	-254.98894	422.32929	394.91543	-184.00730	452.74937	347.09095	-193.18419	432.88876	470.47112	-219.67810	447.71027	669.25117	-113.53318	474.74705	656.85165	-208.40778	444.20013	576.79977	-206.26539	180.89935	374.06223	-183.63428	176.93361	436.52599	-129.79959	175.29263	367.61539	-153.26883	164.58544	668.06183	-96.33803	166.94365	612.59537	-174.22510	173.89383	598.22807	-975.32761	1034.50783	462.62177	-964.21661	1040.66765	623.30250	-1122.62505	1041.43044	643.69812	-1099.55513	1045.24788	461.03649	-1029.56520	1386.20865	560.66135	-1163.77625	1409.45007	550.40115	-992.49023	1604.64310	573.64540	-1134.82475	1549.21082	653.53592	-1131.47430	1554.34738	489.65115	-1065.58197	1389.50073	735.13458	-1075.95970	1092.80106	773.73550	-1138.38295	1090.76492	755.65308	-1077.04124	1082.44255	715.93925	-1056.32370	846.42014	792.80121	-1014.29352	857.66716	779.25522	-1027.34070	857.20932	739.74991	-1036.29829	1385.68741	387.69718	-1094.31992	1072.91908	364.16836	-1024.35013	1077.84264	382.16255	-1053.40385	1077.07016	336.03153	-1006.18927	850.88310	377.35123	-1012.15340	851.28395	335.62794	-967.84126	861.20308	342.39758	-1067.37404	876.46179	723.65608	-1035.24353	889.47678	384.97433	-1027.50847	451.94576	633.08250	-1133.49052	486.39225	680.75134	-1116.93840	485.50011	562.09763	-1017.67906	464.75441	504.03328	-1099.68140	479.48822	407.18819	-1123.74084	480.20931	531.06464	-1097.74353	165.89138	658.56010	-1132.77763	162.50128	593.87871	-1178.69064	154.08076	664.33151	-1068.00987	166.47141	456.03695	-1128.58864	167.14733	419.75502	-1128.10425	173.70243	508.96847 
29	8.817	-267.92841	1084.04274	671.44081	-305.58237	1095.24437	468.09135	-134.54061	1116.45279	394.23729	-80.94505	1101.09840	633.91533	-268.82904	1448.30521	554.22962	-160.92098	1525.92209	565.00782	-352.23518	1646.65680	485.65243	-184.63388	1636.81488	474.84436	-238.30494	1650.16205	612.73792	-226.53229	1491.99493	369.71184	-153.06682	1184.05640	258.48974	-144.64180	1161.79237	314.75397	-228.48841	1194.02908	276.65630	-266.78976	959.67819	229.21192	-306.79773	981.39442	231.93815	-309.99334	980.38765	274.63282	-184.88451	1492.07077	735.41763	-110.12984	1186.29379	767.71225	-180.28154	1202.95273	818.99696	-112.63483	1208.03688	835.23376	-246.00832	951.42761	800.78171	-235.18389	940.89485	846.04553	-189.30752	937.78343	837.72697	-185.78733	927.78366	345.07198	-182.01097	895.15587	709.13300	-253.79436	422.46544	394.80766	-182.78021	452.76001	347.04723	-192.49651	432.98946	470.61726	-218.59007	447.81769	668.99734	-112.56404	474.63951	656.84113	-207.23227	444.19125	576.61125	-205.74711	181.01917	373.86780	-183.12057	176.92572	436.36208	-129.33955	175.10036	367.48482	-153.15539	164.70222	668.19077	-95.94061	166.77788	612.48131	-173.81662	173.88130	598.19836	-975.15549	1034.49852	462.34951	-964.17778	1040.63065	623.20992	-1122.59689	1041.40808	643.67752	-1099.97696	1045.40146	460.66933	-1029.67697	1386.14319	560.55450	-1163.92929	1409.54285	550.37148	-992.20695	1604.49387	573.76854	-1134.77028	1549.17343	653.57407	-1131.36459	1554.45908	489.66808	-1065.63377	1389.32297	735.10193	-1076.16966	1092.62634	773.63724	-1138.53561	1090.65102	755.52475	-1077.05528	1082.33932	715.84969	-1056.62270	846.29128	792.57088	-1014.56688	857.53899	779.16191	-1027.24083	858.89038	740.52917	-1036.53458	1385.53024	387.43900	-1094.81857	1072.73178	364.47407	-1024.73755	1077.66075	382.17949	-1054.12643	1076.83983	336.14521	-1006.66153	850.77728	377.39021	-1012.75497	851.07391	335.77751	-968.46039	860.99197	342.21352	-1067.37793	876.51428	723.65952	-1035.22385	889.45694	384.98642	-1027.50870	451.91776	632.99934	-1133.50853	486.40064	680.72800	-1116.94382	485.50449	562.07123	-1017.73041	464.75933	503.95153	-1099.80064	479.49017	407.15229	-1123.80203	480.20149	531.04870	-1097.76161	165.88564	658.55530	-1132.90771	162.49268	593.78990	-1178.72314	154.08229	664.33914	-1068.03284	166.46618	456.04713	-1128.62183	167.15065	419.74072	-1128.10387	173.67802	508.95435 
